<?xml version="1.0" encoding="utf-8"?>
<!-- Generator: Adobe Illustrator 23.0.0, SVG Export Plug-In . SVG Version: 6.00 Build 0)  -->
<svg version="1.0" id="Слой_1" xmlns="http://www.w3.org/2000/svg" xmlns:xlink="http://www.w3.org/1999/xlink" x="0px" y="0px"
	 viewBox="0 0 141.7 141.7" enable-background="new 0 0 141.7 141.7" xml:space="preserve">
<path d="M132.8,43.1c-1.9-1.1-4.3-1.2-6.2-0.1l-14.2,7.8C108.1,39,96.8,30.5,83.6,30.5H14.1c-3.5,0-6.3,2.8-6.3,6.3v43.7
	c0,16.9,13.8,30.7,30.7,30.7H108c3.5,0,6.3-2.8,6.3-6.3V93.5l12.3,6.7c0.9,0.5,2,0.8,3,0.8c1.1,0,2.2-0.3,3.2-0.9
	c1.9-1.1,3.1-3.2,3.1-5.4V48.5C135.9,46.3,134.7,44.3,132.8,43.1z M101.7,98.6H38.5c-10,0-18.1-8.1-18.1-18.1V43.1h63.2
	c10,0,18.1,8.1,18.1,18.1V98.6z M123.3,84.1l-9.1-4.9V64.1l9.1-4.9V84.1z"/>
</svg>
