<?xml version="1.0" encoding="utf-8"?>
<!-- Generator: Adobe Illustrator 23.0.0, SVG Export Plug-In . SVG Version: 6.00 Build 0)  -->
<svg version="1.0" id="Слой_1" xmlns="http://www.w3.org/2000/svg" xmlns:xlink="http://www.w3.org/1999/xlink" x="0px" y="0px"
	 viewBox="0 0 141.7 141.7" enable-background="new 0 0 141.7 141.7" xml:space="preserve">
<path d="M76.5,105.7c14.9,0,27-12.1,27-27V39.1c0-14.9-12.1-27-27-27H65.2c-14.9,0-27,12.1-27,27v39.6c0,14.9,12.1,27,27,27h1.4
	v15.5h-17c-2.3,0-4.3,1.9-4.3,4.3s1.9,4.3,4.3,4.3h42.5c2.3,0,4.3-1.9,4.3-4.3s-1.9-4.3-4.3-4.3h-17v-15.5H76.5z M46.8,78.7v-1.4
	h25.4c2.3,0,4.3-1.9,4.3-4.3c0-2.3-1.9-4.3-4.3-4.3H46.8v-5.7h25.4c2.3,0,4.3-1.9,4.3-4.3s-1.9-4.3-4.3-4.3H46.8V49h25.4
	c2.3,0,4.3-1.9,4.3-4.3s-1.9-4.3-4.3-4.3H46.8v-1.4c0-10.2,8.3-18.5,18.5-18.5h11.2c10.2,0,18.5,8.3,18.5,18.5v39.6
	c0,10.2-8.3,18.5-18.5,18.5H65.2C55.1,97.2,46.8,88.9,46.8,78.7z"/>
</svg>
