<?xml version="1.0" encoding="utf-8"?>
<!-- Generator: Adobe Illustrator 23.0.0, SVG Export Plug-In . SVG Version: 6.00 Build 0)  -->
<svg version="1.0" id="Слой_1" xmlns="http://www.w3.org/2000/svg" xmlns:xlink="http://www.w3.org/1999/xlink" x="0px" y="0px"
	 viewBox="0 0 153.4 98.3" enable-background="new 0 0 153.4 98.3" xml:space="preserve">
<path d="M153.4,48.5c0-0.2,0-0.3-0.1-0.5c0-0.2-0.1-0.4-0.1-0.5c-0.1-0.2-0.1-0.4-0.2-0.5c0,0,0,0,0,0c-0.1-0.2-0.2-0.3-0.2-0.5
	c-0.1-0.2-0.2-0.3-0.3-0.5c-0.1-0.1-0.2-0.3-0.3-0.4c-0.1-0.1-0.2-0.3-0.4-0.4c-0.1-0.1-0.2-0.2-0.4-0.3c0,0,0,0,0,0
	c-0.1-0.1-0.3-0.2-0.4-0.3c-0.1-0.1-0.3-0.2-0.5-0.3c-0.2-0.1-0.3-0.2-0.5-0.2c-0.2-0.1-0.3-0.1-0.5-0.2c0,0,0,0,0,0L7.3,0.2
	C5.2-0.4,3,0.2,1.5,1.8C0,3.4-0.4,5.8,0.4,7.8l16.6,41.4L0.4,90.6c-0.8,2-0.4,4.3,1.1,6c1.1,1.2,2.6,1.8,4.2,1.8
	c0.6,0,1.1-0.1,1.7-0.3l142.1-43.5c0.2-0.1,0.4-0.2,0.7-0.3c0.1,0,0.3-0.1,0.4-0.2c0.2-0.1,0.3-0.2,0.5-0.3c0.2-0.1,0.3-0.2,0.5-0.4
	c0.1-0.1,0.2-0.2,0.4-0.3c0.1-0.1,0.3-0.3,0.4-0.4c0.1-0.1,0.2-0.3,0.3-0.4c0.1-0.1,0.2-0.3,0.3-0.4c0.1-0.2,0.2-0.3,0.3-0.5
	c0.1-0.2,0.1-0.3,0.2-0.5c0.1-0.2,0.1-0.4,0.1-0.5c0-0.2,0.1-0.3,0.1-0.5c0-0.2,0-0.4,0-0.6C153.4,48.9,153.4,48.7,153.4,48.5z
	 M15.4,83.8L27,54.8h82.9L15.4,83.8z M27,43.5L15.4,14.6l94.5,28.9H27z"/>
</svg>
