<?xml version="1.0" encoding="utf-8"?>
<!-- Generator: Adobe Illustrator 23.0.0, SVG Export Plug-In . SVG Version: 6.00 Build 0)  -->
<svg version="1.0" id="Слой_1" xmlns="http://www.w3.org/2000/svg" xmlns:xlink="http://www.w3.org/1999/xlink" x="0px" y="0px"
	 viewBox="0 0 141.7 141.7" enable-background="new 0 0 141.7 141.7" xml:space="preserve">
<path d="M118.4,19c-1.1-0.8-2.6-1-3.9-0.5l-56,19.8h-36c-2.3,0-4.3,1.9-4.3,4.3v56.7c0,2.3,1.9,4.3,4.3,4.3h36l56,19.8
	c0.5,0.2,0.9,0.2,1.4,0.2c0.9,0,1.7-0.3,2.5-0.8c1.1-0.8,1.8-2.1,1.8-3.5V22.5C120.2,21.1,119.5,19.8,118.4,19z M26.8,46.8H55V95
	H26.8V46.8z M111.7,113.2l-48.2-17V45.5l48.2-17V113.2z"/>
</svg>
