<?xml version="1.0" encoding="utf-8"?>
<svg version="1.0" xmlns="http://www.w3.org/2000/svg" xmlns:xlink="http://www.w3.org/1999/xlink" x="0px" y="0px"
	 viewBox="0 0 141.7 141.7" enable-background="new 0 0 141.7 141.7" xml:space="preserve">
<path d="M70.9,6.5C35.4,6.5,6.5,35.4,6.5,70.9c0,35.5,28.9,64.4,64.4,64.4c35.5,0,64.4-28.9,64.4-64.4
	C135.3,35.4,106.4,6.5,70.9,6.5z M70.9,129.6c-32.4,0-58.7-26.3-58.7-58.7s26.3-58.7,58.7-58.7s58.7,26.3,58.7,58.7
	S103.3,129.6,70.9,129.6z"/>

<path d="M113.1,52.1c-1.3-0.8-2.9-0.8-4.2-0.1l-9.6,5.3c-2.9-8-10.5-13.7-19.5-13.7h-47c-2.4,0-4.3,1.9-4.3,4.3v29.6
	c0,11.5,9.3,20.8,20.8,20.8h47c2.3,0,4.3-1.9,4.3-4.3v-7.8l8.3,4.6c0.6,0.3,1.3,0.5,2,0.5c0.8,0,1.5-0.2,2.2-0.6
	c1.3-0.8,2.1-2.2,2.1-3.7V55.8C115.2,54.3,114.4,52.9,113.1,52.1z M92.1,89.7H49.3c-6.8,0-12.3-5.5-12.3-12.3V52.1h42.8
	c6.8,0,12.3,5.5,12.3,12.3V89.7z M106.7,79.8l-6.1-3.3V66.3l6.1-3.3V79.8z"/>
</svg>
